{
	"asset":{
		"generator":"Khronos glTF Blender I/O v3.6.27",
		"version":"2.0"
	},
	"extensionsUsed":[
		"KHR_materials_specular",
		"KHR_materials_ior"
	],
	"scene":0,
	"scenes":[
		{
			"name":"Scene",
			"nodes":[
				0,
				1,
				2,
				3,
				4,
				5,
				6,
				7
			]
		}
	],
	"nodes":[
		{
			"mesh":0,
			"name":"Cube"
		},
		{
			"mesh":1,
			"name":"Cube.001"
		},
		{
			"mesh":2,
			"name":"Cube.002"
		},
		{
			"mesh":3,
			"name":"Cube.003"
		},
		{
			"mesh":4,
			"name":"Torus"
		},
		{
			"mesh":5,
			"name":"Circle"
		},
		{
			"mesh":6,
			"name":"Circle.001"
		},
		{
			"mesh":7,
			"name":"Circle.002"
		}
	],
	"materials":[
		{
			"doubleSided":true,
			"extensions":{
				"KHR_materials_specular":{
					"specularColorFactor":[
						0,
						0,
						0
					]
				},
				"KHR_materials_ior":{
					"ior":1.4500000476837158
				}
			},
			"name":"OllieBlue",
			"pbrMetallicRoughness":{
				"baseColorFactor":[
					0.10946138948202133,
					0.1746472418308258,
					0.38642945885658264,
					1
				],
				"metallicFactor":0
			}
		},
		{
			"doubleSided":true,
			"extensions":{
				"KHR_materials_specular":{
					"specularColorFactor":[
						0,
						0,
						0
					]
				},
				"KHR_materials_ior":{
					"ior":1.4500000476837158
				}
			},
			"name":"OllieFace",
			"pbrMetallicRoughness":{
				"baseColorTexture":{
					"index":0
				},
				"metallicFactor":0
			}
		},
		{
			"doubleSided":true,
			"extensions":{
				"KHR_materials_specular":{
					"specularColorFactor":[
						0,
						0,
						0
					]
				},
				"KHR_materials_ior":{
					"ior":1.4500000476837158
				}
			},
			"name":"OllieWings",
			"pbrMetallicRoughness":{
				"baseColorFactor":[
					0.485149085521698,
					0.7304603457450867,
					0.6653875112533569,
					1
				],
				"metallicFactor":0
			}
		},
		{
			"doubleSided":true,
			"extensions":{
				"KHR_materials_specular":{
					"specularColorFactor":[
						0,
						0,
						0
					]
				},
				"KHR_materials_ior":{
					"ior":1.4500000476837158
				}
			},
			"name":"OllieHands",
			"pbrMetallicRoughness":{
				"baseColorTexture":{
					"index":1
				},
				"metallicFactor":0
			}
		},
		{
			"doubleSided":true,
			"extensions":{
				"KHR_materials_specular":{
					"specularColorFactor":[
						0,
						0,
						0
					]
				},
				"KHR_materials_ior":{
					"ior":1.4500000476837158
				}
			},
			"name":"OllieWhite",
			"pbrMetallicRoughness":{
				"baseColorFactor":[
					0.95597243309021,
					0.9386849403381348,
					0.8148465752601624,
					1
				],
				"metallicFactor":0
			}
		},
		{
			"doubleSided":true,
			"emissiveFactor":[
				0.485149085521698,
				0.7304603457450867,
				0.6653875112533569
			],
			"extensions":{
				"KHR_materials_specular":{
					"specularColorFactor":[
						0,
						0,
						0
					]
				},
				"KHR_materials_ior":{
					"ior":1.4500000476837158
				}
			},
			"name":"OllieHalo",
			"pbrMetallicRoughness":{
				"baseColorFactor":[
					0.485149085521698,
					0.7304603457450867,
					0.6653875112533569,
					1
				],
				"metallicFactor":0
			}
		},
		{
			"doubleSided":true,
			"emissiveFactor":[
				0.7304606437683105,
				0.6444793939590454,
				0.036889638751745224
			],
			"extensions":{
				"KHR_materials_specular":{
					"specularColorFactor":[
						0,
						0,
						0
					]
				},
				"KHR_materials_ior":{
					"ior":1.4500000476837158
				}
			},
			"name":"OllieStars",
			"pbrMetallicRoughness":{
				"baseColorFactor":[
					0.7304606437683105,
					0.6444793939590454,
					0.036889638751745224,
					1
				],
				"metallicFactor":0
			}
		},
		{
			"doubleSided":true,
			"extensions":{
				"KHR_materials_specular":{
					"specularColorFactor":[
						0,
						0,
						0
					]
				},
				"KHR_materials_ior":{
					"ior":1.4500000476837158
				}
			},
			"name":"Olliegold",
			"pbrMetallicRoughness":{
				"baseColorFactor":[
					0.6172063946723938,
					0.5088810920715332,
					0.0528608076274395,
					1
				],
				"metallicFactor":0
			}
		}
	],
	"meshes":[
		{
			"name":"Cube.001",
			"primitives":[
				{
					"attributes":{
						"POSITION":0,
						"NORMAL":1,
						"TEXCOORD_0":2
					},
					"indices":3,
					"material":0
				},
				{
					"attributes":{
						"POSITION":4,
						"NORMAL":5,
						"TEXCOORD_0":6
					},
					"indices":7,
					"material":1
				}
			]
		},
		{
			"name":"Cube.003",
			"primitives":[
				{
					"attributes":{
						"POSITION":8,
						"NORMAL":9,
						"TEXCOORD_0":10,
						"TANGENT":11
					},
					"indices":12,
					"material":2
				}
			]
		},
		{
			"name":"Cube.004",
			"primitives":[
				{
					"attributes":{
						"POSITION":13,
						"NORMAL":14,
						"TEXCOORD_0":15,
						"TANGENT":16
					},
					"indices":17,
					"material":3
				}
			]
		},
		{
			"name":"Cube.005",
			"primitives":[
				{
					"attributes":{
						"POSITION":18,
						"NORMAL":19,
						"TEXCOORD_0":20,
						"TANGENT":21
					},
					"indices":22,
					"material":4
				}
			]
		},
		{
			"name":"Torus",
			"primitives":[
				{
					"attributes":{
						"POSITION":23,
						"NORMAL":24,
						"TEXCOORD_0":25,
						"TANGENT":26
					},
					"indices":27,
					"material":5
				}
			]
		},
		{
			"name":"Circle",
			"primitives":[
				{
					"attributes":{
						"POSITION":28,
						"NORMAL":29,
						"TEXCOORD_0":30,
						"TANGENT":31
					},
					"indices":32,
					"material":6
				}
			]
		},
		{
			"name":"Circle.001",
			"primitives":[
				{
					"attributes":{
						"POSITION":33,
						"NORMAL":34,
						"TEXCOORD_0":35,
						"TANGENT":36
					},
					"indices":32,
					"material":6
				}
			]
		},
		{
			"name":"Circle.002",
			"primitives":[
				{
					"attributes":{
						"POSITION":37,
						"NORMAL":38,
						"TEXCOORD_0":39,
						"TANGENT":40
					},
					"indices":41,
					"material":7
				}
			]
		}
	],
	"textures":[
		{
			"sampler":0,
			"source":0
		},
		{
			"sampler":0,
			"source":1
		}
	],
	"images":[
		{
			"bufferView":8,
			"mimeType":"image/png",
			"name":"ScribbleFace"
		},
		{
			"bufferView":19,
			"mimeType":"image/png",
			"name":"OllieHands"
		}
	],
	"accessors":[
		{
			"bufferView":0,
			"componentType":5126,
			"count":227,
			"max":[
				0.6803858876228333,
				0.605596661567688,
				0.2351229041814804
			],
			"min":[
				-0.6828226447105408,
				-0.14429092407226562,
				-0.5052633881568909
			],
			"type":"VEC3"
		},
		{
			"bufferView":1,
			"componentType":5126,
			"count":227,
			"type":"VEC3"
		},
		{
			"bufferView":2,
			"componentType":5126,
			"count":227,
			"type":"VEC2"
		},
		{
			"bufferView":3,
			"componentType":5123,
			"count":1002,
			"type":"SCALAR"
		},
		{
			"bufferView":4,
			"componentType":5126,
			"count":28,
			"max":[
				0.3230239450931549,
				0.3746485114097595,
				0.2695688009262085
			],
			"min":[
				-0.3254607021808624,
				-0.07567548751831055,
				0.1541735976934433
			],
			"type":"VEC3"
		},
		{
			"bufferView":5,
			"componentType":5126,
			"count":28,
			"type":"VEC3"
		},
		{
			"bufferView":6,
			"componentType":5126,
			"count":28,
			"type":"VEC2"
		},
		{
			"bufferView":7,
			"componentType":5123,
			"count":114,
			"type":"SCALAR"
		},
		{
			"bufferView":9,
			"componentType":5126,
			"count":66,
			"max":[
				0.2909824252128601,
				-0.05901998281478882,
				0.002640441060066223
			],
			"min":[
				-0.2934191823005676,
				-0.19792485237121582,
				-0.048744603991508484
			],
			"type":"VEC3"
		},
		{
			"bufferView":10,
			"componentType":5126,
			"count":66,
			"type":"VEC3"
		},
		{
			"bufferView":11,
			"componentType":5126,
			"count":66,
			"type":"VEC2"
		},
		{
			"bufferView":12,
			"componentType":5126,
			"count":66,
			"type":"VEC4"
		},
		{
			"bufferView":13,
			"componentType":5123,
			"count":288,
			"type":"SCALAR"
		},
		{
			"bufferView":14,
			"componentType":5126,
			"count":68,
			"max":[
				0.22719943523406982,
				0.021765947341918945,
				0.2814245820045471
			],
			"min":[
				-0.2250145524740219,
				-0.1375899612903595,
				0.12076394259929657
			],
			"type":"VEC3"
		},
		{
			"bufferView":15,
			"componentType":5126,
			"count":68,
			"type":"VEC3"
		},
		{
			"bufferView":16,
			"componentType":5126,
			"count":68,
			"type":"VEC2"
		},
		{
			"bufferView":17,
			"componentType":5126,
			"count":68,
			"type":"VEC4"
		},
		{
			"bufferView":18,
			"componentType":5123,
			"count":288,
			"type":"SCALAR"
		},
		{
			"bufferView":20,
			"componentType":5126,
			"count":118,
			"max":[
				0.17372842133045197,
				-0.007165372371673584,
				0.08359114825725555
			],
			"min":[
				-0.17616520822048187,
				-0.28937825560569763,
				-0.17159725725650787
			],
			"type":"VEC3"
		},
		{
			"bufferView":21,
			"componentType":5126,
			"count":118,
			"type":"VEC3"
		},
		{
			"bufferView":22,
			"componentType":5126,
			"count":118,
			"type":"VEC2"
		},
		{
			"bufferView":23,
			"componentType":5126,
			"count":118,
			"type":"VEC4"
		},
		{
			"bufferView":24,
			"componentType":5123,
			"count":366,
			"type":"SCALAR"
		},
		{
			"bufferView":25,
			"componentType":5126,
			"count":45,
			"max":[
				0.15213792026042938,
				0.6287698745727539,
				0.3475319743156433
			],
			"min":[
				-0.14305607974529266,
				0.42250895500183105,
				0.13292749226093292
			],
			"type":"VEC3"
		},
		{
			"bufferView":26,
			"componentType":5126,
			"count":45,
			"type":"VEC3"
		},
		{
			"bufferView":27,
			"componentType":5126,
			"count":45,
			"type":"VEC2"
		},
		{
			"bufferView":28,
			"componentType":5126,
			"count":45,
			"type":"VEC4"
		},
		{
			"bufferView":29,
			"componentType":5123,
			"count":192,
			"type":"SCALAR"
		},
		{
			"bufferView":30,
			"componentType":5126,
			"count":22,
			"max":[
				0.4714893102645874,
				0.5661159753799438,
				0.16465447843074799
			],
			"min":[
				0.2575606405735016,
				0.31871098279953003,
				0.0053602904081344604
			],
			"type":"VEC3"
		},
		{
			"bufferView":31,
			"componentType":5126,
			"count":22,
			"type":"VEC3"
		},
		{
			"bufferView":32,
			"componentType":5126,
			"count":22,
			"type":"VEC2"
		},
		{
			"bufferView":33,
			"componentType":5126,
			"count":22,
			"type":"VEC4"
		},
		{
			"bufferView":34,
			"componentType":5123,
			"count":120,
			"type":"SCALAR"
		},
		{
			"bufferView":35,
			"componentType":5126,
			"count":22,
			"max":[
				-0.3057995140552521,
				0.023191452026367188,
				0.19088850915431976
			],
			"min":[
				-0.4753490090370178,
				-0.14597755670547485,
				0.09237591922283173
			],
			"type":"VEC3"
		},
		{
			"bufferView":36,
			"componentType":5126,
			"count":22,
			"type":"VEC3"
		},
		{
			"bufferView":37,
			"componentType":5126,
			"count":22,
			"type":"VEC2"
		},
		{
			"bufferView":38,
			"componentType":5126,
			"count":22,
			"type":"VEC4"
		},
		{
			"bufferView":39,
			"componentType":5126,
			"count":18,
			"max":[
				0.006286047399044037,
				-0.097170889377594,
				0.14777688682079315
			],
			"min":[
				-0.04571214318275452,
				-0.14763376116752625,
				0.11678044497966766
			],
			"type":"VEC3"
		},
		{
			"bufferView":40,
			"componentType":5126,
			"count":18,
			"type":"VEC3"
		},
		{
			"bufferView":41,
			"componentType":5126,
			"count":18,
			"type":"VEC2"
		},
		{
			"bufferView":42,
			"componentType":5126,
			"count":18,
			"type":"VEC4"
		},
		{
			"bufferView":43,
			"componentType":5123,
			"count":96,
			"type":"SCALAR"
		}
	],
	"bufferViews":[
		{
			"buffer":0,
			"byteLength":2724,
			"byteOffset":0,
			"target":34962
		},
		{
			"buffer":0,
			"byteLength":2724,
			"byteOffset":2724,
			"target":34962
		},
		{
			"buffer":0,
			"byteLength":1816,
			"byteOffset":5448,
			"target":34962
		},
		{
			"buffer":0,
			"byteLength":2004,
			"byteOffset":7264,
			"target":34963
		},
		{
			"buffer":0,
			"byteLength":336,
			"byteOffset":9268,
			"target":34962
		},
		{
			"buffer":0,
			"byteLength":336,
			"byteOffset":9604,
			"target":34962
		},
		{
			"buffer":0,
			"byteLength":224,
			"byteOffset":9940,
			"target":34962
		},
		{
			"buffer":0,
			"byteLength":228,
			"byteOffset":10164,
			"target":34963
		},
		{
			"buffer":0,
			"byteLength":36953,
			"byteOffset":10392
		},
		{
			"buffer":0,
			"byteLength":792,
			"byteOffset":47348,
			"target":34962
		},
		{
			"buffer":0,
			"byteLength":792,
			"byteOffset":48140,
			"target":34962
		},
		{
			"buffer":0,
			"byteLength":528,
			"byteOffset":48932,
			"target":34962
		},
		{
			"buffer":0,
			"byteLength":1056,
			"byteOffset":49460,
			"target":34962
		},
		{
			"buffer":0,
			"byteLength":576,
			"byteOffset":50516,
			"target":34963
		},
		{
			"buffer":0,
			"byteLength":816,
			"byteOffset":51092,
			"target":34962
		},
		{
			"buffer":0,
			"byteLength":816,
			"byteOffset":51908,
			"target":34962
		},
		{
			"buffer":0,
			"byteLength":544,
			"byteOffset":52724,
			"target":34962
		},
		{
			"buffer":0,
			"byteLength":1088,
			"byteOffset":53268,
			"target":34962
		},
		{
			"buffer":0,
			"byteLength":576,
			"byteOffset":54356,
			"target":34963
		},
		{
			"buffer":0,
			"byteLength":15477,
			"byteOffset":54932
		},
		{
			"buffer":0,
			"byteLength":1416,
			"byteOffset":70412,
			"target":34962
		},
		{
			"buffer":0,
			"byteLength":1416,
			"byteOffset":71828,
			"target":34962
		},
		{
			"buffer":0,
			"byteLength":944,
			"byteOffset":73244,
			"target":34962
		},
		{
			"buffer":0,
			"byteLength":1888,
			"byteOffset":74188,
			"target":34962
		},
		{
			"buffer":0,
			"byteLength":732,
			"byteOffset":76076,
			"target":34963
		},
		{
			"buffer":0,
			"byteLength":540,
			"byteOffset":76808,
			"target":34962
		},
		{
			"buffer":0,
			"byteLength":540,
			"byteOffset":77348,
			"target":34962
		},
		{
			"buffer":0,
			"byteLength":360,
			"byteOffset":77888,
			"target":34962
		},
		{
			"buffer":0,
			"byteLength":720,
			"byteOffset":78248,
			"target":34962
		},
		{
			"buffer":0,
			"byteLength":384,
			"byteOffset":78968,
			"target":34963
		},
		{
			"buffer":0,
			"byteLength":264,
			"byteOffset":79352,
			"target":34962
		},
		{
			"buffer":0,
			"byteLength":264,
			"byteOffset":79616,
			"target":34962
		},
		{
			"buffer":0,
			"byteLength":176,
			"byteOffset":79880,
			"target":34962
		},
		{
			"buffer":0,
			"byteLength":352,
			"byteOffset":80056,
			"target":34962
		},
		{
			"buffer":0,
			"byteLength":240,
			"byteOffset":80408,
			"target":34963
		},
		{
			"buffer":0,
			"byteLength":264,
			"byteOffset":80648,
			"target":34962
		},
		{
			"buffer":0,
			"byteLength":264,
			"byteOffset":80912,
			"target":34962
		},
		{
			"buffer":0,
			"byteLength":176,
			"byteOffset":81176,
			"target":34962
		},
		{
			"buffer":0,
			"byteLength":352,
			"byteOffset":81352,
			"target":34962
		},
		{
			"buffer":0,
			"byteLength":216,
			"byteOffset":81704,
			"target":34962
		},
		{
			"buffer":0,
			"byteLength":216,
			"byteOffset":81920,
			"target":34962
		},
		{
			"buffer":0,
			"byteLength":144,
			"byteOffset":82136,
			"target":34962
		},
		{
			"buffer":0,
			"byteLength":288,
			"byteOffset":82280,
			"target":34962
		},
		{
			"buffer":0,
			"byteLength":192,
			"byteOffset":82568,
			"target":34963
		}
	],
	"samplers":[
		{
			"magFilter":9729,
			"minFilter":9987
		}
	],
	"buffers":[
		{
			"byteLength":82760,
			"uri":"data:application/octet-stream;base64,"
		}
	]
}
