{
	"asset":{
		"generator":"Khronos glTF Blender I/O v3.6.27",
		"version":"2.0"
	},
	"extensionsUsed":[
		"KHR_materials_specular",
		"KHR_materials_ior",
		"KHR_lights_punctual"
	],
	"extensionsRequired":[
		"KHR_lights_punctual"
	],
	"extensions":{
		"KHR_lights_punctual":{
			"lights":[
				{
					"color":[
						1,
						1,
						1
					],
					"intensity":2717.5706532941126,
					"type":"point",
					"name":"Point"
				}
			]
		}
	},
	"scene":0,
	"scenes":[
		{
			"name":"Scene",
			"nodes":[
				0,
				1
			]
		}
	],
	"nodes":[
		{
			"mesh":0,
			"name":"CornerOuter-col.001"
		},
		{
			"extensions":{
				"KHR_lights_punctual":{
					"light":0
				}
			},
			"name":"Point",
			"rotation":[
				-0.7071068286895752,
				0,
				0,
				0.7071068286895752
			],
			"translation":[
				0,
				1.3239421844482422,
				-3.989499568939209
			]
		}
	],
	"materials":[
		{
			"doubleSided":true,
			"extensions":{
				"KHR_materials_specular":{
					"specularColorFactor":[
						0,
						0,
						0
					]
				},
				"KHR_materials_ior":{
					"ior":1.4500000476837158
				}
			},
			"name":"StoneWall",
			"normalTexture":{
				"index":0
			},
			"pbrMetallicRoughness":{
				"baseColorTexture":{
					"index":1
				},
				"metallicFactor":0
			}
		},
		{
			"doubleSided":true,
			"extensions":{
				"KHR_materials_specular":{
					"specularColorFactor":[
						0,
						0,
						0
					]
				},
				"KHR_materials_ior":{
					"ior":1.4500000476837158
				}
			},
			"name":"PackedDirt",
			"normalTexture":{
				"index":2
			},
			"pbrMetallicRoughness":{
				"baseColorTexture":{
					"index":3
				},
				"metallicFactor":0
			}
		}
	],
	"meshes":[
		{
			"name":"Plane.027",
			"primitives":[
				{
					"attributes":{
						"POSITION":0,
						"NORMAL":1,
						"TEXCOORD_0":2
					},
					"indices":3,
					"material":0
				},
				{
					"attributes":{
						"POSITION":4,
						"NORMAL":5,
						"TEXCOORD_0":6
					},
					"indices":7,
					"material":1
				}
			]
		}
	],
	"textures":[
		{
			"sampler":0,
			"source":0
		},
		{
			"sampler":0,
			"source":1
		},
		{
			"sampler":0,
			"source":2
		},
		{
			"sampler":0,
			"source":3
		}
	],
	"images":[
		{
			"bufferView":4,
			"mimeType":"image/png",
			"name":"StoneWall64x_n"
		},
		{
			"bufferView":5,
			"mimeType":"image/png",
			"name":"StoneWall64x"
		},
		{
			"bufferView":10,
			"mimeType":"image/png",
			"name":"crackedGround64x_n"
		},
		{
			"bufferView":11,
			"mimeType":"image/png",
			"name":"crackedGround64x"
		}
	],
	"accessors":[
		{
			"bufferView":0,
			"componentType":5126,
			"count":319,
			"max":[
				5.000669956207275,
				2.5,
				1
			],
			"min":[
				-1.0006699562072754,
				0,
				-5.000000476837158
			],
			"type":"VEC3"
		},
		{
			"bufferView":1,
			"componentType":5126,
			"count":319,
			"type":"VEC3"
		},
		{
			"bufferView":2,
			"componentType":5126,
			"count":319,
			"type":"VEC2"
		},
		{
			"bufferView":3,
			"componentType":5123,
			"count":504,
			"type":"SCALAR"
		},
		{
			"bufferView":6,
			"componentType":5126,
			"count":62,
			"max":[
				5.000669956207275,
				0,
				1.000000238418579
			],
			"min":[
				-1.0006699562072754,
				0,
				-5.000000476837158
			],
			"type":"VEC3"
		},
		{
			"bufferView":7,
			"componentType":5126,
			"count":62,
			"type":"VEC3"
		},
		{
			"bufferView":8,
			"componentType":5126,
			"count":62,
			"type":"VEC2"
		},
		{
			"bufferView":9,
			"componentType":5123,
			"count":120,
			"type":"SCALAR"
		}
	],
	"bufferViews":[
		{
			"buffer":0,
			"byteLength":3828,
			"byteOffset":0,
			"target":34962
		},
		{
			"buffer":0,
			"byteLength":3828,
			"byteOffset":3828,
			"target":34962
		},
		{
			"buffer":0,
			"byteLength":2552,
			"byteOffset":7656,
			"target":34962
		},
		{
			"buffer":0,
			"byteLength":1008,
			"byteOffset":10208,
			"target":34963
		},
		{
			"buffer":0,
			"byteLength":33807,
			"byteOffset":11216
		},
		{
			"buffer":0,
			"byteLength":247464,
			"byteOffset":45024
		},
		{
			"buffer":0,
			"byteLength":744,
			"byteOffset":292488,
			"target":34962
		},
		{
			"buffer":0,
			"byteLength":744,
			"byteOffset":293232,
			"target":34962
		},
		{
			"buffer":0,
			"byteLength":496,
			"byteOffset":293976,
			"target":34962
		},
		{
			"buffer":0,
			"byteLength":240,
			"byteOffset":294472,
			"target":34963
		},
		{
			"buffer":0,
			"byteLength":588760,
			"byteOffset":294712
		},
		{
			"buffer":0,
			"byteLength":428613,
			"byteOffset":883472
		}
	],
	"samplers":[
		{
			"magFilter":9728,
			"minFilter":9984
		}
	],
	"buffers":[
		{
			"byteLength":1312088,
			"uri":"data:application/octet-stream;base64,"
		}
	]
}
